<svg width="250" height="250" viewBox="0 0 250 250" fill="none" xmlns="http://www.w3.org/2000/svg">
<circle cx="124.57" cy="126.57" r="98.57" fill="#FFD44F"/>
<g filter="url(#filter0_i_203_35731)">
<circle cx="125.409" cy="125.409" r="86.4088" fill="#FD9D13"/>
</g>
<path d="M122.114 72.12C123.293 69.1374 127.515 69.1374 128.695 72.12L141.731 105.075C142.225 106.325 143.385 107.187 144.724 107.3L178.867 110.178C181.955 110.438 183.241 114.26 180.938 116.334L154.669 139.994C153.717 140.852 153.302 142.157 153.586 143.406L161.566 178.581C162.266 181.669 158.867 184.052 156.203 182.341L127.316 163.789C126.151 163.041 124.657 163.041 123.492 163.789L94.6057 182.341C91.9407 184.052 88.5418 181.669 89.2426 178.581L97.2222 143.406C97.5057 142.157 97.0916 140.852 96.1395 139.994L69.8699 116.334C67.5676 114.26 68.8534 110.438 71.9408 110.178L106.084 107.3C107.423 107.187 108.583 106.325 109.077 105.075L122.114 72.12Z" fill="#F3F0DF"/>
<g filter="url(#filter1_d_203_35731)">
<path d="M210.206 14.4946C208.394 13.857 206.743 12.8307 205.368 11.4874C202.785 9.02143 201.049 5.61589 200.209 1.37416C200.134 0.987485 199.928 0.638769 199.625 0.38798C199.322 0.13719 198.941 0 198.548 0C198.155 0 197.775 0.13719 197.472 0.38798C197.169 0.638769 196.962 0.987485 196.888 1.37416C196.051 5.63109 194.318 9.02143 191.729 11.4874C190.354 12.8307 188.703 13.857 186.891 14.4946C186.551 14.6056 186.255 14.8214 186.046 15.1112C185.836 15.4009 185.723 15.7497 185.723 16.1077C185.723 16.4657 185.836 16.8145 186.046 17.1042C186.255 17.394 186.551 17.6098 186.891 17.7208C188.703 18.3569 190.354 19.3822 191.729 20.7249C194.315 23.194 196.048 26.5965 196.888 30.8412C196.964 31.2266 197.171 31.5736 197.474 31.8231C197.777 32.0726 198.156 32.2092 198.548 32.2095C198.94 32.2092 199.32 32.0726 199.623 31.8231C199.926 31.5736 200.133 31.2266 200.209 30.8412C201.046 26.5843 202.782 23.194 205.368 20.7249C206.743 19.3822 208.394 18.3569 210.206 17.7208C210.545 17.6098 210.841 17.394 211.051 17.1042C211.261 16.8145 211.374 16.4657 211.374 16.1077C211.374 15.7497 211.261 15.4009 211.051 15.1112C210.841 14.8214 210.545 14.6056 210.206 14.4946Z" fill="#F3F0DF"/>
</g>
<g filter="url(#filter2_d_203_35731)">
<path d="M182.828 48.4404C180.605 47.6578 178.578 46.3981 176.891 44.7493C173.721 41.7227 171.59 37.5427 170.558 32.3365C170.467 31.8619 170.214 31.4339 169.842 31.1261C169.47 30.8183 169.003 30.6499 168.52 30.6499C168.038 30.6499 167.571 30.8183 167.199 31.1261C166.827 31.4339 166.574 31.8619 166.483 32.3365C165.455 37.5614 163.328 41.7227 160.15 44.7493C158.463 46.3981 156.436 47.6578 154.212 48.4404C153.795 48.5766 153.432 48.8415 153.175 49.1971C152.917 49.5527 152.778 49.9808 152.778 50.4202C152.778 50.8596 152.917 51.2877 153.175 51.6433C153.432 51.999 153.795 52.2638 154.212 52.4001C156.436 53.1808 158.463 54.4393 160.15 56.0873C163.324 59.1178 165.451 63.2939 166.483 68.5039C166.576 68.9769 166.83 69.4028 167.202 69.7091C167.573 70.0153 168.039 70.1829 168.52 70.1833C169.002 70.1829 169.468 70.0153 169.839 69.7091C170.211 69.4028 170.465 68.9769 170.558 68.5039C171.586 63.279 173.717 59.1178 176.891 56.0873C178.578 54.4393 180.605 53.1808 182.828 52.4001C183.245 52.2638 183.609 51.999 183.866 51.6433C184.124 51.2877 184.263 50.8596 184.263 50.4202C184.263 49.9808 184.124 49.5527 183.866 49.1971C183.609 48.8415 183.245 48.5766 182.828 48.4404Z" fill="#F3F0DF"/>
</g>
<g filter="url(#filter3_d_203_35731)">
<path d="M70.0373 79.448C66.4083 78.171 63.1014 76.1154 60.3477 73.4249C55.1747 68.4858 51.6976 61.6648 50.0138 53.1691C49.8653 52.3946 49.4522 51.6961 48.8453 51.1938C48.2385 50.6915 47.4759 50.4167 46.6887 50.4167C45.9016 50.4167 45.139 50.6915 44.5322 51.1938C43.9253 51.6961 43.5122 52.3946 43.3637 53.1691C41.6859 61.6953 38.215 68.4858 33.0298 73.4249C30.2761 76.1154 26.9692 78.171 23.3402 79.448C22.6598 79.6704 22.067 80.1026 21.6467 80.6829C21.2263 81.2632 21 81.9619 21 82.6789C21 83.3959 21.2263 84.0945 21.6467 84.6748C22.067 85.2551 22.6598 85.6874 23.3402 85.9097C26.9693 87.1838 30.2764 89.2374 33.0298 91.9268C38.2089 96.872 41.6799 103.687 43.3637 112.189C43.5157 112.96 43.9302 113.656 44.5365 114.155C45.1429 114.655 45.9036 114.929 46.6887 114.929C47.4739 114.929 48.2346 114.655 48.8409 114.155C49.4473 113.656 49.8618 112.96 50.0138 112.189C51.6915 103.662 55.1686 96.872 60.3477 91.9268C63.1011 89.2374 66.4082 87.1838 70.0373 85.9097C70.7177 85.6874 71.3104 85.2551 71.7307 84.6748C72.1511 84.0945 72.3775 83.3959 72.3775 82.6789C72.3775 81.9619 72.1511 81.2632 71.7307 80.6829C71.3104 80.1026 70.7177 79.6704 70.0373 79.448Z" fill="#F3F0DF"/>
</g>
<defs>
<filter id="filter0_i_203_35731" x="39" y="39" width="172.817" height="174.818" filterUnits="userSpaceOnUse" color-interpolation-filters="sRGB">
<feFlood flood-opacity="0" result="BackgroundImageFix"/>
<feBlend mode="normal" in="SourceGraphic" in2="BackgroundImageFix" result="shape"/>
<feColorMatrix in="SourceAlpha" type="matrix" values="0 0 0 0 0 0 0 0 0 0 0 0 0 0 0 0 0 0 127 0" result="hardAlpha"/>
<feMorphology radius="2" operator="erode" in="SourceAlpha" result="effect1_innerShadow_203_35731"/>
<feOffset dy="5"/>
<feComposite in2="hardAlpha" operator="arithmetic" k2="-1" k3="1"/>
<feColorMatrix type="matrix" values="0 0 0 0 0 0 0 0 0 0 0 0 0 0 0 0 0 0 0.1 0"/>
<feBlend mode="normal" in2="shape" result="effect1_innerShadow_203_35731"/>
</filter>
<filter id="filter1_d_203_35731" x="183.149" y="0" width="28.2249" height="34.783" filterUnits="userSpaceOnUse" color-interpolation-filters="sRGB">
<feFlood flood-opacity="0" result="BackgroundImageFix"/>
<feColorMatrix in="SourceAlpha" type="matrix" values="0 0 0 0 0 0 0 0 0 0 0 0 0 0 0 0 0 0 127 0" result="hardAlpha"/>
<feOffset dx="-2.57353" dy="2.57353"/>
<feComposite in2="hardAlpha" operator="out"/>
<feColorMatrix type="matrix" values="0 0 0 0 0 0 0 0 0 0 0 0 0 0 0 0 0 0 0.1 0"/>
<feBlend mode="normal" in2="BackgroundImageFix" result="effect1_dropShadow_203_35731"/>
<feBlend mode="normal" in="SourceGraphic" in2="effect1_dropShadow_203_35731" result="shape"/>
</filter>
<filter id="filter2_d_203_35731" x="149.62" y="30.6499" width="34.6431" height="42.6922" filterUnits="userSpaceOnUse" color-interpolation-filters="sRGB">
<feFlood flood-opacity="0" result="BackgroundImageFix"/>
<feColorMatrix in="SourceAlpha" type="matrix" values="0 0 0 0 0 0 0 0 0 0 0 0 0 0 0 0 0 0 127 0" result="hardAlpha"/>
<feOffset dx="-3.15871" dy="3.15871"/>
<feComposite in2="hardAlpha" operator="out"/>
<feColorMatrix type="matrix" values="0 0 0 0 0 0 0 0 0 0 0 0 0 0 0 0 0 0 0.1 0"/>
<feBlend mode="normal" in2="BackgroundImageFix" result="effect1_dropShadow_203_35731"/>
<feBlend mode="normal" in="SourceGraphic" in2="effect1_dropShadow_203_35731" result="shape"/>
</filter>
<filter id="filter3_d_203_35731" x="18.4265" y="50.4167" width="53.9515" height="67.086" filterUnits="userSpaceOnUse" color-interpolation-filters="sRGB">
<feFlood flood-opacity="0" result="BackgroundImageFix"/>
<feColorMatrix in="SourceAlpha" type="matrix" values="0 0 0 0 0 0 0 0 0 0 0 0 0 0 0 0 0 0 127 0" result="hardAlpha"/>
<feOffset dx="-2.57353" dy="2.57353"/>
<feComposite in2="hardAlpha" operator="out"/>
<feColorMatrix type="matrix" values="0 0 0 0 0 0 0 0 0 0 0 0 0 0 0 0 0 0 0.1 0"/>
<feBlend mode="normal" in2="BackgroundImageFix" result="effect1_dropShadow_203_35731"/>
<feBlend mode="normal" in="SourceGraphic" in2="effect1_dropShadow_203_35731" result="shape"/>
</filter>
</defs>
</svg>
